# xmcd
#
# Track frame offsets: 
#        150
#        11047
#        24161
#        35344
#        49812
#        62510
#        75767
#        85760
#        95889
#        107105
#        120312
#        130931
#        142306
#        155499
#        167239
#        177804
#        187341
#        199142
#        210414
#        223934
#        237530
#        249431
#        261073
#        268546
#        280773
#        289872
#        302579
#        312749
#        327536
#        341632
#
# Disc length: 4710 seconds
#
# Revision: 1
# Processed by: cddbd v1.5.2PL0 Copyright (c) Steve Scherf et al.
# Submitted via: ExactAudioCopy v1.1
#
DISCID=c012641e
DTITLE=Various Artist - The Bakersfield Sound (Bear Family) - Disc 9
DYEAR=2019
DGENRE=Country
TTITLE0=Buck Owens - Arms Full Of Empty (stereo)
TTITLE1=Susan Raye - Love Sure Feels Good In My Heart (stereo)
TTITLE2=Homer Joy - Streets Of Bakersfield (stereo)
TTITLE3=Merle Haggard - I Know An Ending When It Comes (stereo)
TTITLE4=Buck Owens - Something's Wrong (stereo)
TTITLE5=Doyle Singer With The Buckaroos - Young Widow Brown (stereo)
TTITLE6=Tide Cartwright - Cheater's Ground (stereo)
TTITLE7=Blackjack Duran - I Laid Back Down (mono)
TTITLE8=Arlo Guthrie - This Troubled Mind Of Mine (stereo)
TTITLE9=Merle Haggard - The Emptiest Arms In The World (stereo)
TTITLE10=Kenny Johnson With The Country Mile - Beer Drinkers Of Americ
TTITLE10=a Unite (stereo)
TTITLE11=Buck Owens and Susan Raye - Sweethearts In Heaven (stereo)
TTITLE12=Laurel Lee - Mountain Of Fortune And Fame (mono)
TTITLE13=Red Simpson - Bill Woods From Bakersfield (stereo)
TTITLE14=Thad Tillotson - Good Ole Country Sound (mono)
TTITLE15=Freddie Hart - If You Can't Feel It (It Ain't There) (stereo)
TTITLE16=Carlyle Graham - Foolish Man (mono)
TTITLE17=Kay Austin - The Lord Rested On Sunday (stereo)
TTITLE18=Cliff Crofford - Every Time I Hear The Fiddle Play (mono)
TTITLE19=Merle Haggard - Holding Things Together (stereo)
TTITLE20=David Frizzell - I'm The Bartender's Best Friend (stereo)
TTITLE21=LaWanda Lindsey - I Ain't Hangin' Around (stereo)
TTITLE22=Toby Keeney - Going Back To Oklahoma (mono)
TTITLE23=Walt Pascoe - That Little Glass Of Milk (stereo)
TTITLE24=Roger Spanke - Betty Jane (mono)
TTITLE25=Sandy Thomas - Antique In My Closet (stereo)
TTITLE26=Dennis Payne - Do You Believe In Me (stereo)
TTITLE27=Debi Hawkins - Teach Me How To Love (stereo)
TTITLE28=Merle Haggard - Mirrors Don't Lie (stereo)
TTITLE29=Tony Booth - A Different Kind Of Sad (stereo)
EXTD=
EXTT0=
EXTT1=
EXTT2=
EXTT3=
EXTT4=
EXTT5=
EXTT6=
EXTT7=
EXTT8=
EXTT9=
EXTT10=
EXTT11=
EXTT12=
EXTT13=
EXTT14=
EXTT15=
EXTT16=
EXTT17=
EXTT18=
EXTT19=
EXTT20=
EXTT21=
EXTT22=
EXTT23=
EXTT24=
EXTT25=
EXTT26=
EXTT27=
EXTT28=
EXTT29=
PLAYORDER=
